# xmcd
#
# Track frame offsets: 
#        151
#        21093
#        42892
#        59135
#        75967
#        94404
#        108457
#        129217
#        145782
#        163149
#        181031
#        194779
#        208886
#
# Disc length: 3032 seconds
#
# Revision: 2
# Processed by: cddbd v1.5.2PL0 Copyright (c) Steve Scherf et al.
# Submitted via: ExactAudioCopyFreeDBPlugin 1.0
#
DISCID=b70bd60d
DTITLE=Various Artist - Hell Bent and Country Bound - Off The Record
DYEAR=2004
DGENRE=Country
TTITLE0=Jason Boland and The Stragglers - Somewhere In The Middle
TTITLE1=Randy Rogers Band - Tonight's Not The Night
TTITLE2=Gary P. Nunn - Second Thoughts
TTITLE3=Cory Morrow - 21 Days
TTITLE4=Drew Womack - Hey Daisy
TTITLE5=Phil Pritchett - God Save The King
TTITLE6=Kevin Fowler - The Lord Loves The Drinkin' Man
TTITLE7=Tommy Alverson - Maybe In Mexico
TTITLE8=Honeybrowne - Fall Into You
TTITLE9=Cross Canadian Ragweed - Look At Me
TTITLE10=Cooder Graw - Dirty Little Home Town Girl
TTITLE11=Micky and The Motorcars - Pointless Love
TTITLE12=Ray Wylie Hubbard - Wanna Rock And Roll
EXTD=YEAR: 2004
EXTT0=
EXTT1=
EXTT2=
EXTT3=
EXTT4=
EXTT5=
EXTT6=
EXTT7=
EXTT8=
EXTT9=
EXTT10=
EXTT11=
EXTT12=
PLAYORDER=
